<svg width="657" height="267" viewBox="0 0 657 267" fill="none" xmlns="http://www.w3.org/2000/svg">
<g style="mix-blend-mode:overlay">
<path d="M6 3C6 4.65685 4.65685 6 3 6C1.34315 6 0 4.65685 0 3C0 1.34315 1.34315 0 3 0C4.65685 0 6 1.34315 6 3Z" fill="#D9D9D9"/>
<path d="M56.5714 3C56.5714 4.65685 55.2283 6 53.5714 6C51.9146 6 50.5714 4.65685 50.5714 3C50.5714 1.34315 51.9146 0 53.5714 0C55.2283 0 56.5714 1.34315 56.5714 3Z" fill="#D9D9D9"/>
<path d="M107.143 3C107.143 4.65685 105.8 6 104.143 6C102.486 6 101.143 4.65685 101.143 3C101.143 1.34315 102.486 0 104.143 0C105.8 0 107.143 1.34315 107.143 3Z" fill="#D9D9D9"/>
<path d="M156.714 3C156.714 4.65685 155.595 6 154.214 6C152.834 6 151.714 4.65685 151.714 3C151.714 1.34315 152.834 0 154.214 0C155.595 0 156.714 1.34315 156.714 3Z" fill="#D9D9D9"/>
<path d="M208.286 3C208.286 4.65685 206.943 6 205.286 6C203.629 6 202.286 4.65685 202.286 3C202.286 1.34315 203.629 0 205.286 0C206.943 0 208.286 1.34315 208.286 3Z" fill="#D9D9D9"/>
<path d="M258.857 3C258.857 4.65685 257.514 6 255.857 6C254.2 6 252.857 4.65685 252.857 3C252.857 1.34315 254.2 0 255.857 0C257.514 0 258.857 1.34315 258.857 3Z" fill="#D9D9D9"/>
<path d="M309.429 3C309.429 4.65685 308.085 6 306.429 6C304.772 6 303.429 4.65685 303.429 3C303.429 1.34315 304.772 0 306.429 0C308.085 0 309.429 1.34315 309.429 3Z" fill="#D9D9D9"/>
<path d="M6 54.8333C6 56.214 4.65685 57.3333 3 57.3333C1.34315 57.3333 0 56.214 0 54.8333C0 53.4526 1.34315 52.3333 3 52.3333C4.65685 52.3333 6 53.4526 6 54.8333Z" fill="#D9D9D9"/>
<path d="M56.5714 54.8333C56.5714 56.214 55.2283 57.3333 53.5714 57.3333C51.9146 57.3333 50.5714 56.214 50.5714 54.8333C50.5714 53.4526 51.9146 52.3333 53.5714 52.3333C55.2283 52.3333 56.5714 53.4526 56.5714 54.8333Z" fill="#D9D9D9"/>
<path d="M107.143 54.8333C107.143 56.214 105.8 57.3333 104.143 57.3333C102.486 57.3333 101.143 56.214 101.143 54.8333C101.143 53.4526 102.486 52.3333 104.143 52.3333C105.8 52.3333 107.143 53.4526 107.143 54.8333Z" fill="#D9D9D9"/>
<path d="M156.714 54.8333C156.714 56.214 155.595 57.3333 154.214 57.3333C152.834 57.3333 151.714 56.214 151.714 54.8333C151.714 53.4526 152.834 52.3333 154.214 52.3333C155.595 52.3333 156.714 53.4526 156.714 54.8333Z" fill="#D9D9D9"/>
<path d="M208.286 54.8333C208.286 56.214 206.943 57.3333 205.286 57.3333C203.629 57.3333 202.286 56.214 202.286 54.8333C202.286 53.4526 203.629 52.3333 205.286 52.3333C206.943 52.3333 208.286 53.4526 208.286 54.8333Z" fill="#D9D9D9"/>
<path d="M258.857 54.8333C258.857 56.214 257.514 57.3333 255.857 57.3333C254.2 57.3333 252.857 56.214 252.857 54.8333C252.857 53.4526 254.2 52.3333 255.857 52.3333C257.514 52.3333 258.857 53.4526 258.857 54.8333Z" fill="#D9D9D9"/>
<path d="M309.429 54.8333C309.429 56.214 308.085 57.3333 306.429 57.3333C304.772 57.3333 303.429 56.214 303.429 54.8333C303.429 53.4526 304.772 52.3333 306.429 52.3333C308.085 52.3333 309.429 53.4526 309.429 54.8333Z" fill="#D9D9D9"/>
<path d="M6 107.167C6 108.547 4.65685 109.667 3 109.667C1.34315 109.667 0 108.547 0 107.167C0 105.786 1.34315 104.667 3 104.667C4.65685 104.667 6 105.786 6 107.167Z" fill="#D9D9D9"/>
<path d="M56.5714 107.167C56.5714 108.547 55.2283 109.667 53.5714 109.667C51.9146 109.667 50.5714 108.547 50.5714 107.167C50.5714 105.786 51.9146 104.667 53.5714 104.667C55.2283 104.667 56.5714 105.786 56.5714 107.167Z" fill="#D9D9D9"/>
<path d="M107.143 107.167C107.143 108.547 105.8 109.667 104.143 109.667C102.486 109.667 101.143 108.547 101.143 107.167C101.143 105.786 102.486 104.667 104.143 104.667C105.8 104.667 107.143 105.786 107.143 107.167Z" fill="#D9D9D9"/>
<path d="M156.714 107.167C156.714 108.547 155.595 109.667 154.214 109.667C152.834 109.667 151.714 108.547 151.714 107.167C151.714 105.786 152.834 104.667 154.214 104.667C155.595 104.667 156.714 105.786 156.714 107.167Z" fill="#D9D9D9"/>
<path d="M208.286 107.167C208.286 108.547 206.943 109.667 205.286 109.667C203.629 109.667 202.286 108.547 202.286 107.167C202.286 105.786 203.629 104.667 205.286 104.667C206.943 104.667 208.286 105.786 208.286 107.167Z" fill="#D9D9D9"/>
<path d="M258.857 107.167C258.857 108.547 257.514 109.667 255.857 109.667C254.2 109.667 252.857 108.547 252.857 107.167C252.857 105.786 254.2 104.667 255.857 104.667C257.514 104.667 258.857 105.786 258.857 107.167Z" fill="#D9D9D9"/>
<path d="M309.429 107.167C309.429 108.547 308.085 109.667 306.429 109.667C304.772 109.667 303.429 108.547 303.429 107.167C303.429 105.786 304.772 104.667 306.429 104.667C308.085 104.667 309.429 105.786 309.429 107.167Z" fill="#D9D9D9"/>
<path d="M6 160C6 161.657 4.65685 163 3 163C1.34315 163 0 161.657 0 160C0 158.343 1.34315 157 3 157C4.65685 157 6 158.343 6 160Z" fill="#D9D9D9"/>
<path d="M56.5714 160C56.5714 161.657 55.2283 163 53.5714 163C51.9146 163 50.5714 161.657 50.5714 160C50.5714 158.343 51.9146 157 53.5714 157C55.2283 157 56.5714 158.343 56.5714 160Z" fill="#D9D9D9"/>
<path d="M107.143 160C107.143 161.657 105.8 163 104.143 163C102.486 163 101.143 161.657 101.143 160C101.143 158.343 102.486 157 104.143 157C105.8 157 107.143 158.343 107.143 160Z" fill="#D9D9D9"/>
<path d="M156.714 160C156.714 161.657 155.595 163 154.214 163C152.834 163 151.714 161.657 151.714 160C151.714 158.343 152.834 157 154.214 157C155.595 157 156.714 158.343 156.714 160Z" fill="#D9D9D9"/>
<path d="M208.286 160C208.286 161.657 206.943 163 205.286 163C203.629 163 202.286 161.657 202.286 160C202.286 158.343 203.629 157 205.286 157C206.943 157 208.286 158.343 208.286 160Z" fill="#D9D9D9"/>
<path d="M258.857 160C258.857 161.657 257.514 163 255.857 163C254.2 163 252.857 161.657 252.857 160C252.857 158.343 254.2 157 255.857 157C257.514 157 258.857 158.343 258.857 160Z" fill="#D9D9D9"/>
<path d="M309.429 160C309.429 161.657 308.085 163 306.429 163C304.772 163 303.429 161.657 303.429 160C303.429 158.343 304.772 157 306.429 157C308.085 157 309.429 158.343 309.429 160Z" fill="#D9D9D9"/>
<path d="M6 212.333C6 213.99 4.65685 215.333 3 215.333C1.34315 215.333 0 213.99 0 212.333C0 210.676 1.34315 209.333 3 209.333C4.65685 209.333 6 210.676 6 212.333Z" fill="#D9D9D9"/>
<path d="M56.5714 212.333C56.5714 213.99 55.2283 215.333 53.5714 215.333C51.9146 215.333 50.5714 213.99 50.5714 212.333C50.5714 210.676 51.9146 209.333 53.5714 209.333C55.2283 209.333 56.5714 210.676 56.5714 212.333Z" fill="#D9D9D9"/>
<path d="M107.143 212.333C107.143 213.99 105.8 215.333 104.143 215.333C102.486 215.333 101.143 213.99 101.143 212.333C101.143 210.676 102.486 209.333 104.143 209.333C105.8 209.333 107.143 210.676 107.143 212.333Z" fill="#D9D9D9"/>
<path d="M156.714 212.333C156.714 213.99 155.595 215.333 154.214 215.333C152.834 215.333 151.714 213.99 151.714 212.333C151.714 210.676 152.834 209.333 154.214 209.333C155.595 209.333 156.714 210.676 156.714 212.333Z" fill="#D9D9D9"/>
<path d="M208.286 212.333C208.286 213.99 206.943 215.333 205.286 215.333C203.629 215.333 202.286 213.99 202.286 212.333C202.286 210.676 203.629 209.333 205.286 209.333C206.943 209.333 208.286 210.676 208.286 212.333Z" fill="#D9D9D9"/>
<path d="M258.857 212.333C258.857 213.99 257.514 215.333 255.857 215.333C254.2 215.333 252.857 213.99 252.857 212.333C252.857 210.676 254.2 209.333 255.857 209.333C257.514 209.333 258.857 210.676 258.857 212.333Z" fill="#D9D9D9"/>
<path d="M309.429 212.333C309.429 213.99 308.085 215.333 306.429 215.333C304.772 215.333 303.429 213.99 303.429 212.333C303.429 210.676 304.772 209.333 306.429 209.333C308.085 209.333 309.429 210.676 309.429 212.333Z" fill="#D9D9D9"/>
<path d="M6 264.167C6 265.547 4.65685 266.667 3 266.667C1.34315 266.667 0 265.547 0 264.167C0 262.786 1.34315 261.667 3 261.667C4.65685 261.667 6 262.786 6 264.167Z" fill="#D9D9D9"/>
<path d="M56.5714 264.167C56.5714 265.547 55.2283 266.667 53.5714 266.667C51.9146 266.667 50.5714 265.547 50.5714 264.167C50.5714 262.786 51.9146 261.667 53.5714 261.667C55.2283 261.667 56.5714 262.786 56.5714 264.167Z" fill="#D9D9D9"/>
<path d="M107.143 264.167C107.143 265.547 105.8 266.667 104.143 266.667C102.486 266.667 101.143 265.547 101.143 264.167C101.143 262.786 102.486 261.667 104.143 261.667C105.8 261.667 107.143 262.786 107.143 264.167Z" fill="#D9D9D9"/>
<path d="M156.714 264.167C156.714 265.547 155.595 266.667 154.214 266.667C152.834 266.667 151.714 265.547 151.714 264.167C151.714 262.786 152.834 261.667 154.214 261.667C155.595 261.667 156.714 262.786 156.714 264.167Z" fill="#D9D9D9"/>
<path d="M208.286 264.167C208.286 265.547 206.943 266.667 205.286 266.667C203.629 266.667 202.286 265.547 202.286 264.167C202.286 262.786 203.629 261.667 205.286 261.667C206.943 261.667 208.286 262.786 208.286 264.167Z" fill="#D9D9D9"/>
<path d="M258.857 264.167C258.857 265.547 257.514 266.667 255.857 266.667C254.2 266.667 252.857 265.547 252.857 264.167C252.857 262.786 254.2 261.667 255.857 261.667C257.514 261.667 258.857 262.786 258.857 264.167Z" fill="#D9D9D9"/>
<path d="M309.429 264.167C309.429 265.547 308.085 266.667 306.429 266.667C304.772 266.667 303.429 265.547 303.429 264.167C303.429 262.786 304.772 261.667 306.429 261.667C308.085 261.667 309.429 262.786 309.429 264.167Z" fill="#D9D9D9"/>
<path d="M353 3C353 4.65685 351.657 6 350 6C348.343 6 347 4.65685 347 3C347 1.34315 348.343 0 350 0C351.657 0 353 1.34315 353 3Z" fill="#D9D9D9"/>
<path d="M403.571 3C403.571 4.65685 402.228 6 400.571 6C398.915 6 397.571 4.65685 397.571 3C397.571 1.34315 398.915 0 400.571 0C402.228 0 403.571 1.34315 403.571 3Z" fill="#D9D9D9"/>
<path d="M454.143 3C454.143 4.65685 452.8 6 451.143 6C449.486 6 448.143 4.65685 448.143 3C448.143 1.34315 449.486 0 451.143 0C452.8 0 454.143 1.34315 454.143 3Z" fill="#D9D9D9"/>
<path d="M503.714 3C503.714 4.65685 502.595 6 501.214 6C499.834 6 498.714 4.65685 498.714 3C498.714 1.34315 499.834 0 501.214 0C502.595 0 503.714 1.34315 503.714 3Z" fill="#D9D9D9"/>
<path d="M555.286 3C555.286 4.65685 553.943 6 552.286 6C550.629 6 549.286 4.65685 549.286 3C549.286 1.34315 550.629 0 552.286 0C553.943 0 555.286 1.34315 555.286 3Z" fill="#D9D9D9"/>
<path d="M605.857 3C605.857 4.65685 604.514 6 602.857 6C601.2 6 599.857 4.65685 599.857 3C599.857 1.34315 601.2 0 602.857 0C604.514 0 605.857 1.34315 605.857 3Z" fill="#D9D9D9"/>
<path d="M656.429 3C656.429 4.65685 655.085 6 653.429 6C651.772 6 650.429 4.65685 650.429 3C650.429 1.34315 651.772 0 653.429 0C655.085 0 656.429 1.34315 656.429 3Z" fill="#D9D9D9"/>
<path d="M353 54.8333C353 56.214 351.657 57.3333 350 57.3333C348.343 57.3333 347 56.214 347 54.8333C347 53.4526 348.343 52.3333 350 52.3333C351.657 52.3333 353 53.4526 353 54.8333Z" fill="#D9D9D9"/>
<path d="M403.571 54.8333C403.571 56.214 402.228 57.3333 400.571 57.3333C398.915 57.3333 397.571 56.214 397.571 54.8333C397.571 53.4526 398.915 52.3333 400.571 52.3333C402.228 52.3333 403.571 53.4526 403.571 54.8333Z" fill="#D9D9D9"/>
<path d="M454.143 54.8333C454.143 56.214 452.8 57.3333 451.143 57.3333C449.486 57.3333 448.143 56.214 448.143 54.8333C448.143 53.4526 449.486 52.3333 451.143 52.3333C452.8 52.3333 454.143 53.4526 454.143 54.8333Z" fill="#D9D9D9"/>
<path d="M503.714 54.8333C503.714 56.214 502.595 57.3333 501.214 57.3333C499.834 57.3333 498.714 56.214 498.714 54.8333C498.714 53.4526 499.834 52.3333 501.214 52.3333C502.595 52.3333 503.714 53.4526 503.714 54.8333Z" fill="#D9D9D9"/>
<path d="M555.286 54.8333C555.286 56.214 553.943 57.3333 552.286 57.3333C550.629 57.3333 549.286 56.214 549.286 54.8333C549.286 53.4526 550.629 52.3333 552.286 52.3333C553.943 52.3333 555.286 53.4526 555.286 54.8333Z" fill="#D9D9D9"/>
<path d="M605.857 54.8333C605.857 56.214 604.514 57.3333 602.857 57.3333C601.2 57.3333 599.857 56.214 599.857 54.8333C599.857 53.4526 601.2 52.3333 602.857 52.3333C604.514 52.3333 605.857 53.4526 605.857 54.8333Z" fill="#D9D9D9"/>
<path d="M656.429 54.8333C656.429 56.214 655.085 57.3333 653.429 57.3333C651.772 57.3333 650.429 56.214 650.429 54.8333C650.429 53.4526 651.772 52.3333 653.429 52.3333C655.085 52.3333 656.429 53.4526 656.429 54.8333Z" fill="#D9D9D9"/>
<path d="M353 107.167C353 108.547 351.657 109.667 350 109.667C348.343 109.667 347 108.547 347 107.167C347 105.786 348.343 104.667 350 104.667C351.657 104.667 353 105.786 353 107.167Z" fill="#D9D9D9"/>
<path d="M403.571 107.167C403.571 108.547 402.228 109.667 400.571 109.667C398.915 109.667 397.571 108.547 397.571 107.167C397.571 105.786 398.915 104.667 400.571 104.667C402.228 104.667 403.571 105.786 403.571 107.167Z" fill="#D9D9D9"/>
<path d="M454.143 107.167C454.143 108.547 452.8 109.667 451.143 109.667C449.486 109.667 448.143 108.547 448.143 107.167C448.143 105.786 449.486 104.667 451.143 104.667C452.8 104.667 454.143 105.786 454.143 107.167Z" fill="#D9D9D9"/>
<path d="M503.714 107.167C503.714 108.547 502.595 109.667 501.214 109.667C499.834 109.667 498.714 108.547 498.714 107.167C498.714 105.786 499.834 104.667 501.214 104.667C502.595 104.667 503.714 105.786 503.714 107.167Z" fill="#D9D9D9"/>
<path d="M555.286 107.167C555.286 108.547 553.943 109.667 552.286 109.667C550.629 109.667 549.286 108.547 549.286 107.167C549.286 105.786 550.629 104.667 552.286 104.667C553.943 104.667 555.286 105.786 555.286 107.167Z" fill="#D9D9D9"/>
<path d="M605.857 107.167C605.857 108.547 604.514 109.667 602.857 109.667C601.2 109.667 599.857 108.547 599.857 107.167C599.857 105.786 601.2 104.667 602.857 104.667C604.514 104.667 605.857 105.786 605.857 107.167Z" fill="#D9D9D9"/>
<path d="M656.429 107.167C656.429 108.547 655.085 109.667 653.429 109.667C651.772 109.667 650.429 108.547 650.429 107.167C650.429 105.786 651.772 104.667 653.429 104.667C655.085 104.667 656.429 105.786 656.429 107.167Z" fill="#D9D9D9"/>
<path d="M353 160C353 161.657 351.657 163 350 163C348.343 163 347 161.657 347 160C347 158.343 348.343 157 350 157C351.657 157 353 158.343 353 160Z" fill="#D9D9D9"/>
<path d="M403.571 160C403.571 161.657 402.228 163 400.571 163C398.915 163 397.571 161.657 397.571 160C397.571 158.343 398.915 157 400.571 157C402.228 157 403.571 158.343 403.571 160Z" fill="#D9D9D9"/>
<path d="M454.143 160C454.143 161.657 452.8 163 451.143 163C449.486 163 448.143 161.657 448.143 160C448.143 158.343 449.486 157 451.143 157C452.8 157 454.143 158.343 454.143 160Z" fill="#D9D9D9"/>
<path d="M503.714 160C503.714 161.657 502.595 163 501.214 163C499.834 163 498.714 161.657 498.714 160C498.714 158.343 499.834 157 501.214 157C502.595 157 503.714 158.343 503.714 160Z" fill="#D9D9D9"/>
<path d="M555.286 160C555.286 161.657 553.943 163 552.286 163C550.629 163 549.286 161.657 549.286 160C549.286 158.343 550.629 157 552.286 157C553.943 157 555.286 158.343 555.286 160Z" fill="#D9D9D9"/>
<path d="M605.857 160C605.857 161.657 604.514 163 602.857 163C601.2 163 599.857 161.657 599.857 160C599.857 158.343 601.2 157 602.857 157C604.514 157 605.857 158.343 605.857 160Z" fill="#D9D9D9"/>
<path d="M656.429 160C656.429 161.657 655.085 163 653.429 163C651.772 163 650.429 161.657 650.429 160C650.429 158.343 651.772 157 653.429 157C655.085 157 656.429 158.343 656.429 160Z" fill="#D9D9D9"/>
<path d="M353 212.333C353 213.99 351.657 215.333 350 215.333C348.343 215.333 347 213.99 347 212.333C347 210.676 348.343 209.333 350 209.333C351.657 209.333 353 210.676 353 212.333Z" fill="#D9D9D9"/>
<path d="M403.571 212.333C403.571 213.99 402.228 215.333 400.571 215.333C398.915 215.333 397.571 213.99 397.571 212.333C397.571 210.676 398.915 209.333 400.571 209.333C402.228 209.333 403.571 210.676 403.571 212.333Z" fill="#D9D9D9"/>
<path d="M454.143 212.333C454.143 213.99 452.8 215.333 451.143 215.333C449.486 215.333 448.143 213.99 448.143 212.333C448.143 210.676 449.486 209.333 451.143 209.333C452.8 209.333 454.143 210.676 454.143 212.333Z" fill="#D9D9D9"/>
<path d="M503.714 212.333C503.714 213.99 502.595 215.333 501.214 215.333C499.834 215.333 498.714 213.99 498.714 212.333C498.714 210.676 499.834 209.333 501.214 209.333C502.595 209.333 503.714 210.676 503.714 212.333Z" fill="#D9D9D9"/>
<path d="M555.286 212.333C555.286 213.99 553.943 215.333 552.286 215.333C550.629 215.333 549.286 213.99 549.286 212.333C549.286 210.676 550.629 209.333 552.286 209.333C553.943 209.333 555.286 210.676 555.286 212.333Z" fill="#D9D9D9"/>
<path d="M605.857 212.333C605.857 213.99 604.514 215.333 602.857 215.333C601.2 215.333 599.857 213.99 599.857 212.333C599.857 210.676 601.2 209.333 602.857 209.333C604.514 209.333 605.857 210.676 605.857 212.333Z" fill="#D9D9D9"/>
<path d="M656.429 212.333C656.429 213.99 655.085 215.333 653.429 215.333C651.772 215.333 650.429 213.99 650.429 212.333C650.429 210.676 651.772 209.333 653.429 209.333C655.085 209.333 656.429 210.676 656.429 212.333Z" fill="#D9D9D9"/>
<path d="M353 264.167C353 265.547 351.657 266.667 350 266.667C348.343 266.667 347 265.547 347 264.167C347 262.786 348.343 261.667 350 261.667C351.657 261.667 353 262.786 353 264.167Z" fill="#D9D9D9"/>
<path d="M403.571 264.167C403.571 265.547 402.228 266.667 400.571 266.667C398.915 266.667 397.571 265.547 397.571 264.167C397.571 262.786 398.915 261.667 400.571 261.667C402.228 261.667 403.571 262.786 403.571 264.167Z" fill="#D9D9D9"/>
<path d="M454.143 264.167C454.143 265.547 452.8 266.667 451.143 266.667C449.486 266.667 448.143 265.547 448.143 264.167C448.143 262.786 449.486 261.667 451.143 261.667C452.8 261.667 454.143 262.786 454.143 264.167Z" fill="#D9D9D9"/>
<path d="M503.714 264.167C503.714 265.547 502.595 266.667 501.214 266.667C499.834 266.667 498.714 265.547 498.714 264.167C498.714 262.786 499.834 261.667 501.214 261.667C502.595 261.667 503.714 262.786 503.714 264.167Z" fill="#D9D9D9"/>
<path d="M555.286 264.167C555.286 265.547 553.943 266.667 552.286 266.667C550.629 266.667 549.286 265.547 549.286 264.167C549.286 262.786 550.629 261.667 552.286 261.667C553.943 261.667 555.286 262.786 555.286 264.167Z" fill="#D9D9D9"/>
<path d="M605.857 264.167C605.857 265.547 604.514 266.667 602.857 266.667C601.2 266.667 599.857 265.547 599.857 264.167C599.857 262.786 601.2 261.667 602.857 261.667C604.514 261.667 605.857 262.786 605.857 264.167Z" fill="#D9D9D9"/>
<path d="M656.429 264.167C656.429 265.547 655.085 266.667 653.429 266.667C651.772 266.667 650.429 265.547 650.429 264.167C650.429 262.786 651.772 261.667 653.429 261.667C655.085 261.667 656.429 262.786 656.429 264.167Z" fill="#D9D9D9"/>
</g>
</svg>
