<svg width="568" height="170" viewBox="0 0 568 170" fill="none" xmlns="http://www.w3.org/2000/svg">
<g style="mix-blend-mode:overlay">
<path d="M154.298 166.817C154.298 165.436 155.641 164.317 157.298 164.316C158.955 164.316 160.298 165.435 160.298 166.816C160.299 168.196 158.956 169.316 157.299 169.316C155.642 169.317 154.299 168.198 154.298 166.817Z" fill="#D9D9D9"/>
<path d="M102.736 166.829C102.735 165.448 104.078 164.329 105.735 164.328C107.392 164.328 108.735 165.447 108.736 166.828C108.736 168.208 107.393 169.328 105.736 169.328C104.08 169.329 102.736 168.21 102.736 166.829Z" fill="#D9D9D9"/>
<path d="M51.1732 166.841C51.1729 165.461 52.5157 164.341 54.1726 164.341C55.8295 164.34 57.1729 165.459 57.1732 166.84C57.1735 168.221 55.8306 169.34 54.1738 169.341C52.5169 169.341 51.1735 168.222 51.1732 166.841Z" fill="#D9D9D9"/>
<path d="M0.610581 166.853C0.610254 165.473 1.72928 164.353 3.10999 164.353C4.4907 164.352 5.61025 165.471 5.61058 166.852C5.61091 168.233 4.49188 169.352 3.11117 169.353C1.73046 169.353 0.610907 168.234 0.610581 166.853Z" fill="#D9D9D9"/>
<path d="M154.289 125.754C154.288 124.373 155.631 123.253 157.288 123.253C158.945 123.253 160.288 124.372 160.289 125.752C160.289 127.133 158.946 128.253 157.289 128.253C155.632 128.253 154.289 127.135 154.289 125.754Z" fill="#D9D9D9"/>
<path d="M102.726 125.766C102.726 124.385 104.069 123.266 105.726 123.265C107.382 123.265 108.726 124.384 108.726 125.765C108.726 127.145 107.384 128.265 105.727 128.265C104.07 128.266 102.726 127.147 102.726 125.766Z" fill="#D9D9D9"/>
<path d="M51.1635 125.778C51.1632 124.397 52.506 123.278 54.1629 123.277C55.8197 123.277 57.1632 124.396 57.1635 125.777C57.1638 127.157 55.8209 128.277 54.1641 128.277C52.5072 128.278 51.1638 127.159 51.1635 125.778Z" fill="#D9D9D9"/>
<path d="M0.60088 125.79C0.600554 124.409 1.71958 123.29 3.10029 123.29C4.481 123.289 5.60055 124.408 5.60088 125.789C5.60121 127.17 4.48218 128.289 3.10147 128.29C1.72076 128.29 0.601206 127.171 0.60088 125.79Z" fill="#D9D9D9"/>
<path d="M154.279 84.1907C154.279 82.5338 155.621 81.1904 157.278 81.19C158.935 81.1896 160.279 82.5324 160.279 84.1893C160.279 85.8461 158.936 87.1896 157.28 87.19C155.623 87.1904 154.279 85.8475 154.279 84.1907Z" fill="#D9D9D9"/>
<path d="M102.716 84.2029C102.716 82.546 104.059 81.2025 105.716 81.2022C107.372 81.2018 108.716 82.5446 108.716 84.2014C108.717 85.8583 107.374 87.2018 105.717 87.2022C104.06 87.2025 102.717 85.8597 102.716 84.2029Z" fill="#D9D9D9"/>
<path d="M51.1537 84.215C51.1533 82.5582 52.4961 81.2147 54.153 81.2143C55.8098 81.2139 57.1533 82.5568 57.1537 84.2136C57.1541 85.8705 55.8112 87.2139 54.1544 87.2143C52.4975 87.2147 51.1541 85.8719 51.1537 84.215Z" fill="#D9D9D9"/>
<path d="M0.591061 84.227C0.590669 82.5701 1.70964 81.2267 3.09035 81.2264C4.47106 81.2261 5.59067 82.569 5.59106 84.2258C5.59145 85.8827 4.47248 87.2261 3.09177 87.2264C1.71106 87.2267 0.591452 85.8838 0.591061 84.227Z" fill="#D9D9D9"/>
<path d="M154.269 43.1276C154.269 41.4707 155.612 40.1272 157.268 40.1268C158.925 40.1265 160.269 41.4693 160.269 43.1261C160.27 44.783 158.927 46.1265 157.27 46.1268C155.613 46.1272 154.27 44.7844 154.269 43.1276Z" fill="#D9D9D9"/>
<path d="M102.707 43.1397C102.706 41.4829 104.049 40.1394 105.706 40.139C107.363 40.1386 108.706 41.4815 108.707 43.1383C108.707 44.7952 107.364 46.1386 105.707 46.139C104.05 46.1394 102.707 44.7966 102.707 43.1397Z" fill="#D9D9D9"/>
<path d="M51.144 43.1519C51.1436 41.4951 52.4864 40.1516 54.1433 40.1512C55.8001 40.1508 57.1436 41.4936 57.144 43.1505C57.1444 44.8074 55.8015 46.1508 54.1447 46.1512C52.4878 46.1516 51.1444 44.8088 51.144 43.1519Z" fill="#D9D9D9"/>
<path d="M0.58136 43.1639C0.580969 41.507 1.69994 40.1636 3.08065 40.1633C4.46136 40.1629 5.58097 41.5058 5.58136 43.1627C5.58175 44.8195 4.46278 46.1629 3.08207 46.1633C1.70136 46.1636 0.581752 44.8207 0.58136 43.1639Z" fill="#D9D9D9"/>
<path d="M154.26 2.56443C154.259 1.18372 155.602 0.0641122 157.259 0.0637208C158.916 0.0633294 160.259 1.1823 160.26 2.56301C160.26 3.94372 158.917 5.06333 157.26 5.06372C155.603 5.06411 154.26 3.94514 154.26 2.56443Z" fill="#D9D9D9"/>
<path d="M102.697 2.57661C102.697 1.1959 104.04 0.0762934 105.696 0.075902C107.353 0.0755106 108.697 1.19448 108.697 2.57519C108.697 3.95591 107.354 5.07551 105.698 5.0759C104.041 5.07629 102.697 3.95732 102.697 2.57661Z" fill="#D9D9D9"/>
<path d="M51.1344 2.58879C51.1341 1.20808 52.4769 0.0884746 54.1338 0.0880832C55.7906 0.0876918 57.1341 1.20666 57.1344 2.58737C57.1347 3.96809 55.7918 5.08769 54.135 5.08808C52.4781 5.08847 51.1347 3.9695 51.1344 2.58879Z" fill="#D9D9D9"/>
<path d="M0.571777 2.60074C0.571451 1.22002 1.69047 0.100473 3.07119 0.100146C4.4519 0.0998201 5.57145 1.21884 5.57178 2.59956C5.5721 3.98027 4.45308 5.09982 3.07237 5.10015C1.69166 5.10047 0.572104 3.98145 0.571777 2.60074Z" fill="#D9D9D9"/>
<path d="M357.298 166.817C357.298 165.436 358.641 164.317 360.298 164.316C361.954 164.316 363.298 165.435 363.298 166.816C363.298 168.196 361.956 169.316 360.299 169.316C358.642 169.317 357.298 168.198 357.298 166.817Z" fill="#D9D9D9"/>
<path d="M305.736 166.829C305.735 165.448 307.078 164.329 308.735 164.328C310.392 164.328 311.735 165.447 311.736 166.828C311.736 168.208 310.393 169.328 308.736 169.328C307.079 169.329 305.736 168.21 305.736 166.829Z" fill="#D9D9D9"/>
<path d="M254.173 166.841C254.173 165.461 255.515 164.341 257.172 164.341C258.829 164.34 260.173 165.459 260.173 166.84C260.173 168.221 258.83 169.34 257.174 169.341C255.517 169.341 254.173 168.222 254.173 166.841Z" fill="#D9D9D9"/>
<path d="M203.61 166.853C203.61 165.473 204.729 164.353 206.11 164.353C207.49 164.352 208.61 165.471 208.61 166.852C208.611 168.233 207.492 169.352 206.111 169.353C204.73 169.353 203.611 168.234 203.61 166.853Z" fill="#D9D9D9"/>
<path d="M357.288 125.754C357.288 124.373 358.631 123.253 360.288 123.253C361.945 123.253 363.288 124.372 363.288 125.752C363.289 127.133 361.946 128.253 360.289 128.253C358.632 128.253 357.289 127.135 357.288 125.754Z" fill="#D9D9D9"/>
<path d="M305.726 125.766C305.726 124.385 307.068 123.266 308.725 123.265C310.382 123.265 311.726 124.384 311.726 125.765C311.726 127.145 310.383 128.265 308.726 128.265C307.07 128.266 305.726 127.147 305.726 125.766Z" fill="#D9D9D9"/>
<path d="M254.163 125.778C254.163 124.397 255.506 123.278 257.163 123.277C258.819 123.277 260.163 124.396 260.163 125.777C260.164 127.157 258.821 128.277 257.164 128.277C255.507 128.278 254.164 127.159 254.163 125.778Z" fill="#D9D9D9"/>
<path d="M203.601 125.79C203.6 124.409 204.719 123.29 206.1 123.29C207.481 123.289 208.6 124.408 208.601 125.789C208.601 127.17 207.482 128.289 206.101 128.29C204.72 128.29 203.601 127.171 203.601 125.79Z" fill="#D9D9D9"/>
<path d="M357.279 84.1907C357.278 82.5338 358.621 81.1904 360.278 81.19C361.935 81.1896 363.278 82.5324 363.279 84.1893C363.279 85.8461 361.936 87.1896 360.279 87.19C358.623 87.1904 357.279 85.8475 357.279 84.1907Z" fill="#D9D9D9"/>
<path d="M305.716 84.2029C305.716 82.546 307.058 81.2025 308.715 81.2022C310.372 81.2018 311.716 82.5446 311.716 84.2014C311.716 85.8583 310.374 87.2018 308.717 87.2022C307.06 87.2025 305.716 85.8597 305.716 84.2029Z" fill="#D9D9D9"/>
<path d="M254.153 84.215C254.153 82.5582 255.496 81.2147 257.153 81.2143C258.81 81.2139 260.153 82.5568 260.153 84.2136C260.154 85.8705 258.811 87.2139 257.154 87.2143C255.497 87.2147 254.154 85.8719 254.153 84.215Z" fill="#D9D9D9"/>
<path d="M203.591 84.227C203.59 82.5701 204.709 81.2267 206.09 81.2264C207.471 81.2261 208.59 82.569 208.591 84.2258C208.591 85.8827 207.472 87.2261 206.092 87.2264C204.711 87.2267 203.591 85.8838 203.591 84.227Z" fill="#D9D9D9"/>
<path d="M357.269 43.1276C357.269 41.4707 358.611 40.1272 360.268 40.1268C361.925 40.1265 363.269 41.4693 363.269 43.1261C363.269 44.783 361.927 46.1265 360.27 46.1268C358.613 46.1272 357.269 44.7844 357.269 43.1276Z" fill="#D9D9D9"/>
<path d="M305.706 43.1397C305.706 41.4829 307.049 40.1394 308.706 40.139C310.362 40.1386 311.706 41.4815 311.706 43.1383C311.707 44.7952 310.364 46.1386 308.707 46.139C307.05 46.1394 305.707 44.7966 305.706 43.1397Z" fill="#D9D9D9"/>
<path d="M254.144 43.1519C254.143 41.4951 255.486 40.1516 257.143 40.1512C258.8 40.1508 260.143 41.4936 260.144 43.1505C260.144 44.8074 258.801 46.1508 257.144 46.1512C255.488 46.1516 254.144 44.8088 254.144 43.1519Z" fill="#D9D9D9"/>
<path d="M203.581 43.1639C203.581 41.507 204.7 40.1636 206.08 40.1633C207.461 40.1629 208.581 41.5058 208.581 43.1627C208.581 44.8195 207.463 46.1629 206.082 46.1633C204.701 46.1636 203.581 44.8207 203.581 43.1639Z" fill="#D9D9D9"/>
<path d="M357.259 2.56443C357.259 1.18372 358.602 0.0641122 360.259 0.0637208C361.916 0.0633294 363.259 1.1823 363.259 2.56301C363.26 3.94372 361.917 5.06333 360.26 5.06372C358.603 5.06411 357.26 3.94514 357.259 2.56443Z" fill="#D9D9D9"/>
<path d="M305.697 2.57661C305.696 1.1959 307.039 0.0762934 308.696 0.075902C310.353 0.0755106 311.696 1.19448 311.697 2.57519C311.697 3.95591 310.354 5.07551 308.697 5.0759C307.04 5.07629 305.697 3.95732 305.697 2.57661Z" fill="#D9D9D9"/>
<path d="M254.134 2.58879C254.134 1.20808 255.477 0.0884746 257.134 0.0880832C258.79 0.0876918 260.134 1.20666 260.134 2.58737C260.134 3.96809 258.792 5.08769 257.135 5.08808C255.478 5.08847 254.134 3.9695 254.134 2.58879Z" fill="#D9D9D9"/>
<path d="M203.572 2.60074C203.571 1.22002 204.69 0.100473 206.071 0.100146C207.452 0.0998201 208.571 1.21884 208.572 2.59956C208.572 3.98027 207.453 5.09982 206.072 5.10015C204.691 5.10047 203.572 3.98145 203.572 2.60074Z" fill="#D9D9D9"/>
<path d="M561.298 166.817C561.298 165.436 562.641 164.317 564.298 164.316C565.954 164.316 567.298 165.435 567.298 166.816C567.298 168.196 565.956 169.316 564.299 169.316C562.642 169.317 561.298 168.198 561.298 166.817Z" fill="#D9D9D9"/>
<path d="M509.736 166.829C509.735 165.448 511.078 164.329 512.735 164.328C514.392 164.328 515.735 165.447 515.736 166.828C515.736 168.208 514.393 169.328 512.736 169.328C511.079 169.329 509.736 168.21 509.736 166.829Z" fill="#D9D9D9"/>
<path d="M458.173 166.841C458.173 165.461 459.515 164.341 461.172 164.341C462.829 164.34 464.173 165.459 464.173 166.84C464.173 168.221 462.83 169.34 461.174 169.341C459.517 169.341 458.173 168.222 458.173 166.841Z" fill="#D9D9D9"/>
<path d="M407.61 166.853C407.61 165.473 408.729 164.353 410.11 164.353C411.49 164.352 412.61 165.471 412.61 166.852C412.611 168.233 411.492 169.352 410.111 169.353C408.73 169.353 407.611 168.234 407.61 166.853Z" fill="#D9D9D9"/>
<path d="M561.288 125.754C561.288 124.373 562.631 123.253 564.288 123.253C565.945 123.253 567.288 124.372 567.288 125.752C567.289 127.133 565.946 128.253 564.289 128.253C562.632 128.253 561.289 127.135 561.288 125.754Z" fill="#D9D9D9"/>
<path d="M509.726 125.766C509.726 124.385 511.068 123.266 512.725 123.265C514.382 123.265 515.726 124.384 515.726 125.765C515.726 127.145 514.383 128.265 512.726 128.265C511.07 128.266 509.726 127.147 509.726 125.766Z" fill="#D9D9D9"/>
<path d="M458.163 125.778C458.163 124.397 459.506 123.278 461.163 123.277C462.819 123.277 464.163 124.396 464.163 125.777C464.164 127.157 462.821 128.277 461.164 128.277C459.507 128.278 458.164 127.159 458.163 125.778Z" fill="#D9D9D9"/>
<path d="M407.601 125.79C407.6 124.409 408.719 123.29 410.1 123.29C411.481 123.289 412.6 124.408 412.601 125.789C412.601 127.17 411.482 128.289 410.101 128.29C408.72 128.29 407.601 127.171 407.601 125.79Z" fill="#D9D9D9"/>
<path d="M561.279 84.1907C561.278 82.5338 562.621 81.1904 564.278 81.19C565.935 81.1896 567.278 82.5324 567.279 84.1893C567.279 85.8461 565.936 87.1896 564.279 87.19C562.623 87.1904 561.279 85.8475 561.279 84.1907Z" fill="#D9D9D9"/>
<path d="M509.716 84.2029C509.716 82.546 511.058 81.2025 512.715 81.2022C514.372 81.2018 515.716 82.5446 515.716 84.2014C515.716 85.8583 514.374 87.2018 512.717 87.2022C511.06 87.2025 509.716 85.8597 509.716 84.2029Z" fill="#D9D9D9"/>
<path d="M458.153 84.215C458.153 82.5582 459.496 81.2147 461.153 81.2143C462.81 81.2139 464.153 82.5568 464.153 84.2136C464.154 85.8705 462.811 87.2139 461.154 87.2143C459.497 87.2147 458.154 85.8719 458.153 84.215Z" fill="#D9D9D9"/>
<path d="M407.591 84.227C407.59 82.5701 408.709 81.2267 410.09 81.2264C411.471 81.2261 412.59 82.569 412.591 84.2258C412.591 85.8827 411.472 87.2261 410.092 87.2264C408.711 87.2267 407.591 85.8838 407.591 84.227Z" fill="#D9D9D9"/>
<path d="M561.269 43.1276C561.269 41.4707 562.611 40.1272 564.268 40.1268C565.925 40.1265 567.269 41.4693 567.269 43.1261C567.269 44.783 565.927 46.1265 564.27 46.1268C562.613 46.1272 561.269 44.7844 561.269 43.1276Z" fill="#D9D9D9"/>
<path d="M509.706 43.1397C509.706 41.4829 511.049 40.1394 512.706 40.139C514.362 40.1386 515.706 41.4815 515.706 43.1383C515.707 44.7952 514.364 46.1386 512.707 46.139C511.05 46.1394 509.707 44.7966 509.706 43.1397Z" fill="#D9D9D9"/>
<path d="M458.144 43.1519C458.143 41.4951 459.486 40.1516 461.143 40.1512C462.8 40.1508 464.143 41.4936 464.144 43.1505C464.144 44.8074 462.801 46.1508 461.144 46.1512C459.488 46.1516 458.144 44.8088 458.144 43.1519Z" fill="#D9D9D9"/>
<path d="M407.581 43.1639C407.581 41.507 408.7 40.1636 410.08 40.1633C411.461 40.1629 412.581 41.5058 412.581 43.1627C412.582 44.8195 411.463 46.1629 410.082 46.1633C408.701 46.1636 407.582 44.8207 407.581 43.1639Z" fill="#D9D9D9"/>
<path d="M561.259 2.56443C561.259 1.18372 562.602 0.0641122 564.259 0.0637208C565.916 0.0633294 567.259 1.1823 567.259 2.56301C567.26 3.94372 565.917 5.06333 564.26 5.06372C562.603 5.06411 561.26 3.94514 561.259 2.56443Z" fill="#D9D9D9"/>
<path d="M509.697 2.57661C509.696 1.1959 511.039 0.0762934 512.696 0.075902C514.353 0.0755106 515.696 1.19448 515.697 2.57519C515.697 3.95591 514.354 5.07551 512.697 5.0759C511.04 5.07629 509.697 3.95732 509.697 2.57661Z" fill="#D9D9D9"/>
<path d="M458.134 2.58879C458.134 1.20808 459.477 0.0884746 461.134 0.0880832C462.79 0.0876918 464.134 1.20666 464.134 2.58737C464.134 3.96809 462.792 5.08769 461.135 5.08808C459.478 5.08847 458.134 3.9695 458.134 2.58879Z" fill="#D9D9D9"/>
<path d="M407.572 2.60074C407.571 1.22002 408.69 0.100473 410.071 0.100146C411.452 0.0998201 412.571 1.21884 412.572 2.59956C412.572 3.98027 411.453 5.09982 410.072 5.10015C408.691 5.10047 407.572 3.98145 407.572 2.60074Z" fill="#D9D9D9"/>
</g>
</svg>
