<svg width="310" height="424" viewBox="0 0 310 424" fill="none" xmlns="http://www.w3.org/2000/svg">
<g style="mix-blend-mode:overlay">
<path d="M6 3C6 4.65685 4.65685 6 3 6C1.34315 6 0 4.65685 0 3C0 1.34315 1.34315 0 3 0C4.65685 0 6 1.34315 6 3Z" fill="#D9D9D9"/>
<path d="M56.5714 3C56.5714 4.65685 55.2283 6 53.5714 6C51.9146 6 50.5714 4.65685 50.5714 3C50.5714 1.34315 51.9146 0 53.5714 0C55.2283 0 56.5714 1.34315 56.5714 3Z" fill="#D9D9D9"/>
<path d="M107.143 3C107.143 4.65685 105.8 6 104.143 6C102.486 6 101.143 4.65685 101.143 3C101.143 1.34315 102.486 0 104.143 0C105.8 0 107.143 1.34315 107.143 3Z" fill="#D9D9D9"/>
<path d="M156.714 3C156.714 4.65685 155.595 6 154.214 6C152.834 6 151.714 4.65685 151.714 3C151.714 1.34315 152.834 0 154.214 0C155.595 0 156.714 1.34315 156.714 3Z" fill="#D9D9D9"/>
<path d="M208.286 3C208.286 4.65685 206.943 6 205.286 6C203.629 6 202.286 4.65685 202.286 3C202.286 1.34315 203.629 0 205.286 0C206.943 0 208.286 1.34315 208.286 3Z" fill="#D9D9D9"/>
<path d="M258.857 3C258.857 4.65685 257.514 6 255.857 6C254.2 6 252.857 4.65685 252.857 3C252.857 1.34315 254.2 0 255.857 0C257.514 0 258.857 1.34315 258.857 3Z" fill="#D9D9D9"/>
<path d="M309.429 3C309.429 4.65685 308.085 6 306.429 6C304.772 6 303.429 4.65685 303.429 3C303.429 1.34315 304.772 0 306.429 0C308.085 0 309.429 1.34315 309.429 3Z" fill="#D9D9D9"/>
<path d="M6 54.8333C6 56.214 4.65685 57.3333 3 57.3333C1.34315 57.3333 0 56.214 0 54.8333C0 53.4526 1.34315 52.3333 3 52.3333C4.65685 52.3333 6 53.4526 6 54.8333Z" fill="#D9D9D9"/>
<path d="M56.5714 54.8333C56.5714 56.214 55.2283 57.3333 53.5714 57.3333C51.9146 57.3333 50.5714 56.214 50.5714 54.8333C50.5714 53.4526 51.9146 52.3333 53.5714 52.3333C55.2283 52.3333 56.5714 53.4526 56.5714 54.8333Z" fill="#D9D9D9"/>
<path d="M107.143 54.8333C107.143 56.214 105.8 57.3333 104.143 57.3333C102.486 57.3333 101.143 56.214 101.143 54.8333C101.143 53.4526 102.486 52.3333 104.143 52.3333C105.8 52.3333 107.143 53.4526 107.143 54.8333Z" fill="#D9D9D9"/>
<path d="M156.714 54.8333C156.714 56.214 155.595 57.3333 154.214 57.3333C152.834 57.3333 151.714 56.214 151.714 54.8333C151.714 53.4526 152.834 52.3333 154.214 52.3333C155.595 52.3333 156.714 53.4526 156.714 54.8333Z" fill="#D9D9D9"/>
<path d="M208.286 54.8333C208.286 56.214 206.943 57.3333 205.286 57.3333C203.629 57.3333 202.286 56.214 202.286 54.8333C202.286 53.4526 203.629 52.3333 205.286 52.3333C206.943 52.3333 208.286 53.4526 208.286 54.8333Z" fill="#D9D9D9"/>
<path d="M258.857 54.8333C258.857 56.214 257.514 57.3333 255.857 57.3333C254.2 57.3333 252.857 56.214 252.857 54.8333C252.857 53.4526 254.2 52.3333 255.857 52.3333C257.514 52.3333 258.857 53.4526 258.857 54.8333Z" fill="#D9D9D9"/>
<path d="M309.429 54.8333C309.429 56.214 308.085 57.3333 306.429 57.3333C304.772 57.3333 303.429 56.214 303.429 54.8333C303.429 53.4526 304.772 52.3333 306.429 52.3333C308.085 52.3333 309.429 53.4526 309.429 54.8333Z" fill="#D9D9D9"/>
<path d="M6 107.167C6 108.547 4.65685 109.667 3 109.667C1.34315 109.667 0 108.547 0 107.167C0 105.786 1.34315 104.667 3 104.667C4.65685 104.667 6 105.786 6 107.167Z" fill="#D9D9D9"/>
<path d="M56.5714 107.167C56.5714 108.547 55.2283 109.667 53.5714 109.667C51.9146 109.667 50.5714 108.547 50.5714 107.167C50.5714 105.786 51.9146 104.667 53.5714 104.667C55.2283 104.667 56.5714 105.786 56.5714 107.167Z" fill="#D9D9D9"/>
<path d="M107.143 107.167C107.143 108.547 105.8 109.667 104.143 109.667C102.486 109.667 101.143 108.547 101.143 107.167C101.143 105.786 102.486 104.667 104.143 104.667C105.8 104.667 107.143 105.786 107.143 107.167Z" fill="#D9D9D9"/>
<path d="M156.714 107.167C156.714 108.547 155.595 109.667 154.214 109.667C152.834 109.667 151.714 108.547 151.714 107.167C151.714 105.786 152.834 104.667 154.214 104.667C155.595 104.667 156.714 105.786 156.714 107.167Z" fill="#D9D9D9"/>
<path d="M208.286 107.167C208.286 108.547 206.943 109.667 205.286 109.667C203.629 109.667 202.286 108.547 202.286 107.167C202.286 105.786 203.629 104.667 205.286 104.667C206.943 104.667 208.286 105.786 208.286 107.167Z" fill="#D9D9D9"/>
<path d="M258.857 107.167C258.857 108.547 257.514 109.667 255.857 109.667C254.2 109.667 252.857 108.547 252.857 107.167C252.857 105.786 254.2 104.667 255.857 104.667C257.514 104.667 258.857 105.786 258.857 107.167Z" fill="#D9D9D9"/>
<path d="M309.429 107.167C309.429 108.547 308.085 109.667 306.429 109.667C304.772 109.667 303.429 108.547 303.429 107.167C303.429 105.786 304.772 104.667 306.429 104.667C308.085 104.667 309.429 105.786 309.429 107.167Z" fill="#D9D9D9"/>
<path d="M6 160C6 161.657 4.65685 163 3 163C1.34315 163 0 161.657 0 160C0 158.343 1.34315 157 3 157C4.65685 157 6 158.343 6 160Z" fill="#D9D9D9"/>
<path d="M56.5714 160C56.5714 161.657 55.2283 163 53.5714 163C51.9146 163 50.5714 161.657 50.5714 160C50.5714 158.343 51.9146 157 53.5714 157C55.2283 157 56.5714 158.343 56.5714 160Z" fill="#D9D9D9"/>
<path d="M107.143 160C107.143 161.657 105.8 163 104.143 163C102.486 163 101.143 161.657 101.143 160C101.143 158.343 102.486 157 104.143 157C105.8 157 107.143 158.343 107.143 160Z" fill="#D9D9D9"/>
<path d="M156.714 160C156.714 161.657 155.595 163 154.214 163C152.834 163 151.714 161.657 151.714 160C151.714 158.343 152.834 157 154.214 157C155.595 157 156.714 158.343 156.714 160Z" fill="#D9D9D9"/>
<path d="M208.286 160C208.286 161.657 206.943 163 205.286 163C203.629 163 202.286 161.657 202.286 160C202.286 158.343 203.629 157 205.286 157C206.943 157 208.286 158.343 208.286 160Z" fill="#D9D9D9"/>
<path d="M258.857 160C258.857 161.657 257.514 163 255.857 163C254.2 163 252.857 161.657 252.857 160C252.857 158.343 254.2 157 255.857 157C257.514 157 258.857 158.343 258.857 160Z" fill="#D9D9D9"/>
<path d="M309.429 160C309.429 161.657 308.085 163 306.429 163C304.772 163 303.429 161.657 303.429 160C303.429 158.343 304.772 157 306.429 157C308.085 157 309.429 158.343 309.429 160Z" fill="#D9D9D9"/>
<path d="M6 212.333C6 213.99 4.65685 215.333 3 215.333C1.34315 215.333 0 213.99 0 212.333C0 210.676 1.34315 209.333 3 209.333C4.65685 209.333 6 210.676 6 212.333Z" fill="#D9D9D9"/>
<path d="M56.5714 212.333C56.5714 213.99 55.2283 215.333 53.5714 215.333C51.9146 215.333 50.5714 213.99 50.5714 212.333C50.5714 210.676 51.9146 209.333 53.5714 209.333C55.2283 209.333 56.5714 210.676 56.5714 212.333Z" fill="#D9D9D9"/>
<path d="M107.143 212.333C107.143 213.99 105.8 215.333 104.143 215.333C102.486 215.333 101.143 213.99 101.143 212.333C101.143 210.676 102.486 209.333 104.143 209.333C105.8 209.333 107.143 210.676 107.143 212.333Z" fill="#D9D9D9"/>
<path d="M156.714 212.333C156.714 213.99 155.595 215.333 154.214 215.333C152.834 215.333 151.714 213.99 151.714 212.333C151.714 210.676 152.834 209.333 154.214 209.333C155.595 209.333 156.714 210.676 156.714 212.333Z" fill="#D9D9D9"/>
<path d="M208.286 212.333C208.286 213.99 206.943 215.333 205.286 215.333C203.629 215.333 202.286 213.99 202.286 212.333C202.286 210.676 203.629 209.333 205.286 209.333C206.943 209.333 208.286 210.676 208.286 212.333Z" fill="#D9D9D9"/>
<path d="M258.857 212.333C258.857 213.99 257.514 215.333 255.857 215.333C254.2 215.333 252.857 213.99 252.857 212.333C252.857 210.676 254.2 209.333 255.857 209.333C257.514 209.333 258.857 210.676 258.857 212.333Z" fill="#D9D9D9"/>
<path d="M309.429 212.333C309.429 213.99 308.085 215.333 306.429 215.333C304.772 215.333 303.429 213.99 303.429 212.333C303.429 210.676 304.772 209.333 306.429 209.333C308.085 209.333 309.429 210.676 309.429 212.333Z" fill="#D9D9D9"/>
<path d="M6 264.167C6 265.547 4.65685 266.667 3 266.667C1.34315 266.667 0 265.547 0 264.167C0 262.786 1.34315 261.667 3 261.667C4.65685 261.667 6 262.786 6 264.167Z" fill="#D9D9D9"/>
<path d="M56.5714 264.167C56.5714 265.547 55.2283 266.667 53.5714 266.667C51.9146 266.667 50.5714 265.547 50.5714 264.167C50.5714 262.786 51.9146 261.667 53.5714 261.667C55.2283 261.667 56.5714 262.786 56.5714 264.167Z" fill="#D9D9D9"/>
<path d="M107.143 264.167C107.143 265.547 105.8 266.667 104.143 266.667C102.486 266.667 101.143 265.547 101.143 264.167C101.143 262.786 102.486 261.667 104.143 261.667C105.8 261.667 107.143 262.786 107.143 264.167Z" fill="#D9D9D9"/>
<path d="M156.714 264.167C156.714 265.547 155.595 266.667 154.214 266.667C152.834 266.667 151.714 265.547 151.714 264.167C151.714 262.786 152.834 261.667 154.214 261.667C155.595 261.667 156.714 262.786 156.714 264.167Z" fill="#D9D9D9"/>
<path d="M208.286 264.167C208.286 265.547 206.943 266.667 205.286 266.667C203.629 266.667 202.286 265.547 202.286 264.167C202.286 262.786 203.629 261.667 205.286 261.667C206.943 261.667 208.286 262.786 208.286 264.167Z" fill="#D9D9D9"/>
<path d="M258.857 264.167C258.857 265.547 257.514 266.667 255.857 266.667C254.2 266.667 252.857 265.547 252.857 264.167C252.857 262.786 254.2 261.667 255.857 261.667C257.514 261.667 258.857 262.786 258.857 264.167Z" fill="#D9D9D9"/>
<path d="M309.429 264.167C309.429 265.547 308.085 266.667 306.429 266.667C304.772 266.667 303.429 265.547 303.429 264.167C303.429 262.786 304.772 261.667 306.429 261.667C308.085 261.667 309.429 262.786 309.429 264.167Z" fill="#D9D9D9"/>
</g>
<g style="mix-blend-mode:overlay">
<path d="M6 160C6 161.657 4.65685 163 3 163C1.34315 163 0 161.657 0 160C0 158.343 1.34315 157 3 157C4.65685 157 6 158.343 6 160Z" fill="#D9D9D9"/>
<path d="M56.5714 160C56.5714 161.657 55.2283 163 53.5714 163C51.9146 163 50.5714 161.657 50.5714 160C50.5714 158.343 51.9146 157 53.5714 157C55.2283 157 56.5714 158.343 56.5714 160Z" fill="#D9D9D9"/>
<path d="M107.143 160C107.143 161.657 105.8 163 104.143 163C102.486 163 101.143 161.657 101.143 160C101.143 158.343 102.486 157 104.143 157C105.8 157 107.143 158.343 107.143 160Z" fill="#D9D9D9"/>
<path d="M156.714 160C156.714 161.657 155.595 163 154.214 163C152.834 163 151.714 161.657 151.714 160C151.714 158.343 152.834 157 154.214 157C155.595 157 156.714 158.343 156.714 160Z" fill="#D9D9D9"/>
<path d="M208.286 160C208.286 161.657 206.943 163 205.286 163C203.629 163 202.286 161.657 202.286 160C202.286 158.343 203.629 157 205.286 157C206.943 157 208.286 158.343 208.286 160Z" fill="#D9D9D9"/>
<path d="M258.857 160C258.857 161.657 257.514 163 255.857 163C254.2 163 252.857 161.657 252.857 160C252.857 158.343 254.2 157 255.857 157C257.514 157 258.857 158.343 258.857 160Z" fill="#D9D9D9"/>
<path d="M309.429 160C309.429 161.657 308.085 163 306.429 163C304.772 163 303.429 161.657 303.429 160C303.429 158.343 304.772 157 306.429 157C308.085 157 309.429 158.343 309.429 160Z" fill="#D9D9D9"/>
<path d="M6 211.833C6 213.214 4.65685 214.333 3 214.333C1.34315 214.333 0 213.214 0 211.833C0 210.453 1.34315 209.333 3 209.333C4.65685 209.333 6 210.453 6 211.833Z" fill="#D9D9D9"/>
<path d="M56.5714 211.833C56.5714 213.214 55.2283 214.333 53.5714 214.333C51.9146 214.333 50.5714 213.214 50.5714 211.833C50.5714 210.453 51.9146 209.333 53.5714 209.333C55.2283 209.333 56.5714 210.453 56.5714 211.833Z" fill="#D9D9D9"/>
<path d="M107.143 211.833C107.143 213.214 105.8 214.333 104.143 214.333C102.486 214.333 101.143 213.214 101.143 211.833C101.143 210.453 102.486 209.333 104.143 209.333C105.8 209.333 107.143 210.453 107.143 211.833Z" fill="#D9D9D9"/>
<path d="M156.714 211.833C156.714 213.214 155.595 214.333 154.214 214.333C152.834 214.333 151.714 213.214 151.714 211.833C151.714 210.453 152.834 209.333 154.214 209.333C155.595 209.333 156.714 210.453 156.714 211.833Z" fill="#D9D9D9"/>
<path d="M208.286 211.833C208.286 213.214 206.943 214.333 205.286 214.333C203.629 214.333 202.286 213.214 202.286 211.833C202.286 210.453 203.629 209.333 205.286 209.333C206.943 209.333 208.286 210.453 208.286 211.833Z" fill="#D9D9D9"/>
<path d="M258.857 211.833C258.857 213.214 257.514 214.333 255.857 214.333C254.2 214.333 252.857 213.214 252.857 211.833C252.857 210.453 254.2 209.333 255.857 209.333C257.514 209.333 258.857 210.453 258.857 211.833Z" fill="#D9D9D9"/>
<path d="M309.429 211.833C309.429 213.214 308.085 214.333 306.429 214.333C304.772 214.333 303.429 213.214 303.429 211.833C303.429 210.453 304.772 209.333 306.429 209.333C308.085 209.333 309.429 210.453 309.429 211.833Z" fill="#D9D9D9"/>
<path d="M6 264.167C6 265.547 4.65685 266.667 3 266.667C1.34315 266.667 0 265.547 0 264.167C0 262.786 1.34315 261.667 3 261.667C4.65685 261.667 6 262.786 6 264.167Z" fill="#D9D9D9"/>
<path d="M56.5714 264.167C56.5714 265.547 55.2283 266.667 53.5714 266.667C51.9146 266.667 50.5714 265.547 50.5714 264.167C50.5714 262.786 51.9146 261.667 53.5714 261.667C55.2283 261.667 56.5714 262.786 56.5714 264.167Z" fill="#D9D9D9"/>
<path d="M107.143 264.167C107.143 265.547 105.8 266.667 104.143 266.667C102.486 266.667 101.143 265.547 101.143 264.167C101.143 262.786 102.486 261.667 104.143 261.667C105.8 261.667 107.143 262.786 107.143 264.167Z" fill="#D9D9D9"/>
<path d="M156.714 264.167C156.714 265.547 155.595 266.667 154.214 266.667C152.834 266.667 151.714 265.547 151.714 264.167C151.714 262.786 152.834 261.667 154.214 261.667C155.595 261.667 156.714 262.786 156.714 264.167Z" fill="#D9D9D9"/>
<path d="M208.286 264.167C208.286 265.547 206.943 266.667 205.286 266.667C203.629 266.667 202.286 265.547 202.286 264.167C202.286 262.786 203.629 261.667 205.286 261.667C206.943 261.667 208.286 262.786 208.286 264.167Z" fill="#D9D9D9"/>
<path d="M258.857 264.167C258.857 265.547 257.514 266.667 255.857 266.667C254.2 266.667 252.857 265.547 252.857 264.167C252.857 262.786 254.2 261.667 255.857 261.667C257.514 261.667 258.857 262.786 258.857 264.167Z" fill="#D9D9D9"/>
<path d="M309.429 264.167C309.429 265.547 308.085 266.667 306.429 266.667C304.772 266.667 303.429 265.547 303.429 264.167C303.429 262.786 304.772 261.667 306.429 261.667C308.085 261.667 309.429 262.786 309.429 264.167Z" fill="#D9D9D9"/>
<path d="M6 317C6 318.657 4.65685 320 3 320C1.34315 320 0 318.657 0 317C0 315.343 1.34315 314 3 314C4.65685 314 6 315.343 6 317Z" fill="#D9D9D9"/>
<path d="M56.5714 317C56.5714 318.657 55.2283 320 53.5714 320C51.9146 320 50.5714 318.657 50.5714 317C50.5714 315.343 51.9146 314 53.5714 314C55.2283 314 56.5714 315.343 56.5714 317Z" fill="#D9D9D9"/>
<path d="M107.143 317C107.143 318.657 105.8 320 104.143 320C102.486 320 101.143 318.657 101.143 317C101.143 315.343 102.486 314 104.143 314C105.8 314 107.143 315.343 107.143 317Z" fill="#D9D9D9"/>
<path d="M156.714 317C156.714 318.657 155.595 320 154.214 320C152.834 320 151.714 318.657 151.714 317C151.714 315.343 152.834 314 154.214 314C155.595 314 156.714 315.343 156.714 317Z" fill="#D9D9D9"/>
<path d="M208.286 317C208.286 318.657 206.943 320 205.286 320C203.629 320 202.286 318.657 202.286 317C202.286 315.343 203.629 314 205.286 314C206.943 314 208.286 315.343 208.286 317Z" fill="#D9D9D9"/>
<path d="M258.857 317C258.857 318.657 257.514 320 255.857 320C254.2 320 252.857 318.657 252.857 317C252.857 315.343 254.2 314 255.857 314C257.514 314 258.857 315.343 258.857 317Z" fill="#D9D9D9"/>
<path d="M309.429 317C309.429 318.657 308.085 320 306.429 320C304.772 320 303.429 318.657 303.429 317C303.429 315.343 304.772 314 306.429 314C308.085 314 309.429 315.343 309.429 317Z" fill="#D9D9D9"/>
<path d="M6 369.333C6 370.99 4.65685 372.333 3 372.333C1.34315 372.333 0 370.99 0 369.333C0 367.676 1.34315 366.333 3 366.333C4.65685 366.333 6 367.676 6 369.333Z" fill="#D9D9D9"/>
<path d="M56.5714 369.333C56.5714 370.99 55.2283 372.333 53.5714 372.333C51.9146 372.333 50.5714 370.99 50.5714 369.333C50.5714 367.676 51.9146 366.333 53.5714 366.333C55.2283 366.333 56.5714 367.676 56.5714 369.333Z" fill="#D9D9D9"/>
<path d="M107.143 369.333C107.143 370.99 105.8 372.333 104.143 372.333C102.486 372.333 101.143 370.99 101.143 369.333C101.143 367.676 102.486 366.333 104.143 366.333C105.8 366.333 107.143 367.676 107.143 369.333Z" fill="#D9D9D9"/>
<path d="M156.714 369.333C156.714 370.99 155.595 372.333 154.214 372.333C152.834 372.333 151.714 370.99 151.714 369.333C151.714 367.676 152.834 366.333 154.214 366.333C155.595 366.333 156.714 367.676 156.714 369.333Z" fill="#D9D9D9"/>
<path d="M208.286 369.333C208.286 370.99 206.943 372.333 205.286 372.333C203.629 372.333 202.286 370.99 202.286 369.333C202.286 367.676 203.629 366.333 205.286 366.333C206.943 366.333 208.286 367.676 208.286 369.333Z" fill="#D9D9D9"/>
<path d="M258.857 369.333C258.857 370.99 257.514 372.333 255.857 372.333C254.2 372.333 252.857 370.99 252.857 369.333C252.857 367.676 254.2 366.333 255.857 366.333C257.514 366.333 258.857 367.676 258.857 369.333Z" fill="#D9D9D9"/>
<path d="M309.429 369.333C309.429 370.99 308.085 372.333 306.429 372.333C304.772 372.333 303.429 370.99 303.429 369.333C303.429 367.676 304.772 366.333 306.429 366.333C308.085 366.333 309.429 367.676 309.429 369.333Z" fill="#D9D9D9"/>
<path d="M6 421.167C6 422.547 4.65685 423.667 3 423.667C1.34315 423.667 0 422.547 0 421.167C0 419.786 1.34315 418.667 3 418.667C4.65685 418.667 6 419.786 6 421.167Z" fill="#D9D9D9"/>
<path d="M56.5714 421.167C56.5714 422.547 55.2283 423.667 53.5714 423.667C51.9146 423.667 50.5714 422.547 50.5714 421.167C50.5714 419.786 51.9146 418.667 53.5714 418.667C55.2283 418.667 56.5714 419.786 56.5714 421.167Z" fill="#D9D9D9"/>
<path d="M107.143 421.167C107.143 422.547 105.8 423.667 104.143 423.667C102.486 423.667 101.143 422.547 101.143 421.167C101.143 419.786 102.486 418.667 104.143 418.667C105.8 418.667 107.143 419.786 107.143 421.167Z" fill="#D9D9D9"/>
<path d="M156.714 421.167C156.714 422.547 155.595 423.667 154.214 423.667C152.834 423.667 151.714 422.547 151.714 421.167C151.714 419.786 152.834 418.667 154.214 418.667C155.595 418.667 156.714 419.786 156.714 421.167Z" fill="#D9D9D9"/>
<path d="M208.286 421.167C208.286 422.547 206.943 423.667 205.286 423.667C203.629 423.667 202.286 422.547 202.286 421.167C202.286 419.786 203.629 418.667 205.286 418.667C206.943 418.667 208.286 419.786 208.286 421.167Z" fill="#D9D9D9"/>
<path d="M258.857 421.167C258.857 422.547 257.514 423.667 255.857 423.667C254.2 423.667 252.857 422.547 252.857 421.167C252.857 419.786 254.2 418.667 255.857 418.667C257.514 418.667 258.857 419.786 258.857 421.167Z" fill="#D9D9D9"/>
<path d="M309.429 421.167C309.429 422.547 308.085 423.667 306.429 423.667C304.772 423.667 303.429 422.547 303.429 421.167C303.429 419.786 304.772 418.667 306.429 418.667C308.085 418.667 309.429 419.786 309.429 421.167Z" fill="#D9D9D9"/>
</g>
</svg>
