<svg width="1259" height="1186" viewBox="0 0 1259 1186" fill="none" xmlns="http://www.w3.org/2000/svg">
<g style="mix-blend-mode:overlay" filter="url(#filter0_f_73_462)">
<path d="M408.867 645.063C512.521 549.787 639.222 518.977 691.862 576.245C744.501 633.514 703.147 757.176 599.493 852.451C495.84 947.727 369.139 978.537 316.499 921.269C263.859 864 305.214 740.339 408.867 645.063Z" fill="#DD7686"/>
<path d="M672.773 456.503C776.426 361.227 903.127 330.416 955.767 387.685C1008.41 444.954 967.052 568.615 863.399 663.891C759.745 759.167 633.044 789.977 580.404 732.709C527.765 675.44 569.119 551.778 672.773 456.503Z" fill="#F4D489"/>
<path d="M576.729 688.824C680.382 593.549 807.083 562.738 859.723 620.007C912.363 677.275 871.008 800.937 767.354 896.212C663.701 991.488 537 1022.3 484.36 965.03C431.72 907.761 473.075 784.1 576.729 688.824Z" fill="#FFF0B6"/>
<path d="M600.26 377.614C703.914 282.338 830.615 251.528 883.255 308.796C935.894 366.065 894.54 489.727 790.886 585.002C687.233 680.278 560.532 711.089 507.892 653.82C455.252 596.551 496.607 472.89 600.26 377.614Z" fill="#B98CDE"/>
<path d="M363.229 494.959C466.882 399.684 593.583 368.873 646.223 426.142C698.863 483.41 657.508 607.072 553.855 702.347C450.201 797.623 323.5 828.434 270.86 771.165C218.221 713.896 259.575 590.235 363.229 494.959Z" fill="#B98CDE"/>
</g>
<defs>
<filter id="filter0_f_73_462" x="-32" y="0" width="1290.63" height="1273.83" filterUnits="userSpaceOnUse" color-interpolation-filters="sRGB">
<feFlood flood-opacity="0" result="BackgroundImageFix"/>
<feBlend mode="normal" in="SourceGraphic" in2="BackgroundImageFix" result="shape"/>
<feGaussianBlur stdDeviation="140" result="effect1_foregroundBlur_73_462"/>
</filter>
</defs>
</svg>
