<svg width="1802" height="807" viewBox="0 0 1802 807" fill="none" xmlns="http://www.w3.org/2000/svg">
<g opacity="0.4">
<mask id="mask0_73_217" style="mask-type:alpha" maskUnits="userSpaceOnUse" x="-65" y="67" width="1561" height="673">
<ellipse cx="643.936" cy="553.865" rx="643.936" ry="553.865" transform="matrix(0.993044 -0.117745 0.806569 0.591141 -371 151.641)" fill="url(#paint0_radial_73_217)"/>
</mask>
<g mask="url(#mask0_73_217)">
<g filter="url(#filter0_d_73_217)">
<path d="M-370.471 151.578L522.62 806.132M907.754 0.33345L-370.631 151.912M289.34 73.3444L1182.43 727.898M1368.7 338.168L90.3195 489.746M-40.5656 112.461L852.525 767.015M1138.23 169.251L-140.156 320.829M619.246 34.2274L1512.34 688.781M1599.18 507.085L320.795 658.663M-205.518 132.02L687.572 786.574M1022.99 84.792L-255.393 236.37M454.293 53.7859L1347.38 708.34M1483.94 422.626L205.557 574.204M124.387 92.9029L1017.48 747.457M1253.47 253.709L-24.918 405.287M784.198 14.6689L1677.29 669.223M1714.42 591.543L436.032 743.122M-287.995 141.799L605.096 796.353M965.372 42.5627L-313.012 194.141M371.816 63.5652L1264.91 718.119M1426.32 380.397L147.938 531.975M41.9108 102.682L935.002 757.236M1195.85 211.48L-82.5368 363.058M701.722 24.4482L1594.81 679.002M1656.8 549.314L378.413 700.892M-123.042 122.241L770.049 776.794M1080.61 127.021L-197.774 278.6M536.769 44.0067L1429.86 698.56M1541.56 464.855L263.176 616.434M206.864 83.1237L1099.95 737.677M1311.09 295.938L32.7007 447.517M866.675 4.88969L1759.77 659.443M1772.04 633.773L493.651 785.351M-329.233 146.689L563.858 801.243M936.563 21.4481L-341.821 173.026M330.578 68.4548L1223.67 723.009M1397.51 359.282L119.129 510.861M0.672576 107.572L893.763 762.126M1167.04 190.365L-111.346 341.944M660.484 29.3378L1553.57 683.892M1627.99 528.199L349.604 679.778M-164.28 127.13L728.811 781.684M1051.8 105.907L-226.584 257.485M495.531 48.8963L1388.62 703.45M1512.75 443.741L234.366 595.319M165.625 88.0133L1058.72 742.567M1282.28 274.824L3.89134 426.402M825.437 9.77931L1718.53 664.333M1743.23 612.658L464.841 764.236M-246.757 136.91L646.334 791.463M994.182 63.6774L-284.203 215.256M413.055 58.6756L1306.15 713.229M1455.13 401.512L176.748 553.09M83.149 97.7925L976.24 752.346M1224.66 232.594L-53.7274 384.173M742.96 19.5586L1636.05 674.112M1685.61 570.429L407.223 722.007M-81.8038 117.351L811.287 771.905M1109.42 148.136L-168.965 299.714M578.007 39.1171L1471.1 693.671M1570.37 485.97L291.985 637.548M248.102 78.234L1141.19 732.788M1339.89 317.053L61.5101 468.631M907.913 6.22634e-05L1801 654.554M1800.84 654.887L522.46 806.465" stroke="white"/>
</g>
</g>
</g>
<defs>
<filter id="filter0_d_73_217" x="-380.134" y="-9.15884" width="2190.73" height="825.02" filterUnits="userSpaceOnUse" color-interpolation-filters="sRGB">
<feFlood flood-opacity="0" result="BackgroundImageFix"/>
<feColorMatrix in="SourceAlpha" type="matrix" values="0 0 0 0 0 0 0 0 0 0 0 0 0 0 0 0 0 0 127 0" result="hardAlpha"/>
<feOffset/>
<feGaussianBlur stdDeviation="4.55"/>
<feColorMatrix type="matrix" values="0 0 0 0 1 0 0 0 0 1 0 0 0 0 1 0 0 0 1 0"/>
<feBlend mode="normal" in2="BackgroundImageFix" result="effect1_dropShadow_73_217"/>
<feBlend mode="normal" in="SourceGraphic" in2="effect1_dropShadow_73_217" result="shape"/>
</filter>
<radialGradient id="paint0_radial_73_217" cx="0" cy="0" r="1" gradientUnits="userSpaceOnUse" gradientTransform="translate(643.936 553.865) rotate(90) scale(553.865 643.936)">
<stop offset="0.807692" stop-color="#D9D9D9"/>
<stop offset="0.956731" stop-color="#B5B5B5" stop-opacity="0.07"/>
<stop offset="1" stop-color="#737373" stop-opacity="0"/>
</radialGradient>
</defs>
</svg>
