<svg width="458" height="407" viewBox="0 0 458 407" fill="none" xmlns="http://www.w3.org/2000/svg">
<path d="M86.0336 373.207C68.6554 354.508 38.1451 316.278 25.8797 260.529C17.6825 223.342 18.5865 184.726 28.5149 147.964C38.4433 111.202 57.1024 77.381 82.9057 49.3771C100.001 47.649 117.192 47.061 134.365 47.617C146.933 48.0273 158.693 49.0248 169.529 50.3703C176.805 44.6491 184.93 40.1014 193.612 36.892C203.458 33.2663 231.329 23.0059 247.335 37.4129C249.42 39.2912 257.947 47.5793 257.854 66.3268C280.499 78.2747 301.473 93.1503 320.237 110.571C347.854 136.313 367.659 174.718 407.259 251.457C419.889 275.942 425.384 287.877 422.881 303.461C417.417 337.5 378.997 356.734 365.625 362.755C362.506 368.14 358.194 372.737 353.019 376.194C327.256 393.048 280.511 377.412 235.751 338.921C216.413 337.668 197.368 333.551 179.24 326.704C169.192 334.311 158.647 341.236 147.674 347.434C128.213 358.421 107.523 367.072 86.0336 373.207Z" fill="#F8993A"/>
<path d="M151.681 179.033C133.178 178.116 103.158 229.23 116.494 270.98C128.402 308.244 170.283 323.725 185.95 329.516C201.041 335.047 216.951 338.011 233.022 338.284C255.809 353.738 274.847 365.51 288.735 373.79C296.853 378.627 302.064 382.046 309.802 383.103C331.407 386.12 350.365 369.318 359.016 360.427C340.409 348.433 322.607 335.234 305.725 320.913C282.405 301.153 279.291 294.933 261.065 281.901C228.577 258.66 219.81 265.027 199.078 247.907C162.743 217.972 167.492 179.816 151.681 179.033Z" fill="#FEF8E2"/>
<path d="M193.818 46.4137C191.245 44.3198 125.818 110.126 134.506 121.338C137.511 125.224 149.467 122.617 156.975 116.933C166.473 109.696 165.962 99.6738 172.343 82.9346C181.554 58.7122 194.894 47.3202 193.818 46.4137Z" fill="#FEF8E2"/>
<path d="M283.605 135.904C292.462 136.353 297.379 145.423 309.465 165.173C335.905 208.376 347.353 222.077 342.037 228.667C339.879 231.353 334.83 231.957 324.741 233.15C318.892 234.007 312.941 233.888 307.131 232.799C303.276 232.015 299.523 230.795 295.945 229.162C291.999 227.402 278.16 220.763 259.094 198.416C250.735 188.625 246.553 183.618 246.104 178.329C245.156 167.036 254.125 157.753 261.292 150.324C269 142.38 275.598 135.504 283.605 135.904Z" fill="#FEF8E2"/>
<path d="M202.81 137.212C194.134 156.045 187.275 175.663 182.327 195.799C178.114 213.079 177.393 222.53 177.976 231.712C178.701 242.759 181.247 253.609 185.509 263.826C193.548 283 207.742 299.727 207.843 299.846C180.881 283.554 170.168 264.404 166.022 255.368C163.787 250.753 162.119 245.885 161.055 240.869C159.745 234.55 157.708 219.898 170.626 189.865C178.838 170.895 189.672 153.171 202.81 137.212Z" fill="#333132"/>
<path d="M235.439 174.239C226.605 182.018 219.205 191.288 213.575 201.625C208.875 210.356 202.046 222.914 202.592 239.731C202.956 251.022 206.48 259.467 209.413 266.494C213.353 275.944 218.719 284.734 225.324 292.556C222.333 281.565 220.164 270.366 218.834 259.053C217.775 250.075 217.124 244.563 217.464 236.97C218.04 224.139 221.024 214.85 226.465 198.283C228.425 192.284 231.34 183.993 235.439 174.239Z" fill="#333132"/>
<path d="M401.408 206.322C388.03 178.666 376.463 154.786 355.824 129.103C338.749 107.987 318.673 89.4877 296.234 74.1941C294.975 72.8072 293.432 71.7072 291.71 70.9687C291.608 70.96 291.514 70.9519 291.417 70.8804C283.798 65.8564 275.886 61.0999 267.654 56.6719C266.167 46.321 261.461 30.4289 246.907 21.8864C231.654 12.9205 214.801 18.2322 204.063 21.6473C193.966 24.9189 184.498 29.8849 176.066 36.3328C175.132 36.0112 174.163 35.7984 173.179 35.6985C159.403 34.4259 142.242 31.1321 99.4624 35.6031C93.4864 36.2308 85.0962 37.166 75.0956 38.5329C60.4631 54.6773 29.3677 93.3962 19.375 152.01C14.2828 182.244 15.4743 213.203 22.8751 242.956C21.9274 217.045 25.2093 191.153 32.5918 166.298C38.1975 147.342 50.5716 107.67 86.0339 74.5673C91.1088 69.8329 96.4643 65.4086 102.071 61.3184C118.8 59.8399 135.607 59.4649 152.385 60.1957C142.624 73.2224 134.772 87.5757 129.068 102.821C124.725 114.603 121.836 126.87 120.465 139.352C128.575 124.12 148.594 88.9931 177.153 63.2937C177.153 63.2937 196.118 46.2309 218.328 42.5473C221.338 42.014 227.625 41.0887 233.818 44.2116C236.321 45.4873 238.544 47.25 240.356 49.3963C243.228 52.8046 244.154 56.2126 245.032 59.4504C246.214 63.9754 246.559 68.6783 246.051 73.3274C254.681 77.2913 263.064 81.7707 271.156 86.7412C270.975 87.2793 270.803 87.818 270.619 88.3953C269.518 91.9523 268.637 95.5741 267.984 99.2399C267.616 101.225 267.329 103.288 267.104 105.372C266.783 107.827 266.823 109.214 266.669 111.66C266.385 119.197 267.115 126.738 268.84 134.08C269.57 137.291 270.51 140.452 271.653 143.54C271.853 140.329 272.261 137.133 272.874 133.974C273.475 130.81 274.271 127.685 275.255 124.618C276.348 121.213 277.689 117.892 279.267 114.682C279.965 113.366 281.016 111.06 281.786 109.916C282.666 108.41 283.573 106.954 284.527 105.604C286.037 103.388 287.676 101.263 289.436 99.2394C292.756 101.737 296.116 104.333 299.476 107.214C301.903 109.256 304.189 111.278 306.375 113.268C306.307 113.42 306.249 113.534 306.188 113.695C304.131 118.514 302.732 123.589 302.028 128.781C301.695 131.458 301.559 134.155 301.623 136.851C301.683 139.131 301.893 141.405 302.251 143.658C302.574 145.794 303.046 147.906 303.663 149.977C304.126 147.931 304.729 145.92 305.467 143.956C306.191 142.001 307.043 140.095 308.018 138.252C309.092 136.215 310.316 134.26 311.681 132.406C313.671 129.739 315.956 127.306 318.492 125.152C325.997 133.092 331.589 140.101 335.669 145.281C356.845 172.188 355.827 171.516 378.124 217.575C386.282 234.435 411.113 285.731 410 294.31C409.709 296.486 409.261 298.639 408.659 300.75C407.984 300.693 407.271 300.703 406.461 300.649C404.27 300.496 402.089 300.218 399.93 299.814C398.732 299.585 397.482 299.32 396.221 298.991C395.616 298.86 394.872 298.591 394.387 298.526L392.32 297.827C389.781 297.002 387.304 295.997 384.907 294.821C382.722 293.77 380.6 292.593 378.55 291.297C376.48 290.01 374.489 288.602 372.586 287.079C373.423 289.433 374.401 291.735 375.515 293.971C376.671 296.335 377.961 298.631 379.379 300.848C381.056 303.491 382.914 306.014 384.94 308.401L386.376 310.105L388.094 311.928C389.196 313.098 390.343 314.2 391.478 315.261C393.591 317.204 395.811 319.028 398.127 320.724C386.074 336.014 367.914 347.271 355.505 353.682C353.778 354.572 352.275 355.841 351.108 357.394C345.219 365.232 338.648 370.047 331.571 371.712C322.6 373.799 300.658 363.344 283.824 354.188C269.278 346.266 255.18 337.545 241.597 328.066C239.905 326.886 237.955 326.128 235.911 325.856C227.31 324.718 221.868 323.074 214.872 322.223L198.589 318.459C178.473 313.758 151.829 307.527 134.797 287.742C122.915 273.933 120.04 258.545 118.454 250.083C113.486 223.486 121.481 202.015 125.356 193.221C119.159 201.887 106.126 222.636 104.931 251.687C104.491 262.284 103.755 280.241 113.634 297.865C122.817 314.203 138.018 324.698 155.274 332.064C146.335 338.836 137.049 345.139 127.456 350.948C111.021 360.896 93.7352 369.364 75.8023 376.254C98.8476 372.689 118.423 368.457 133.97 364.559C133.97 364.559 162.981 357.338 188.809 344.53C189.139 344.369 189.496 344.178 189.863 343.948C190.231 343.719 190.525 343.515 190.838 343.281C197.175 344.811 203.454 346.186 209.453 347.505C217.945 349.354 224.963 350.413 229.376 351.051C242.942 360.389 256.984 369.017 271.446 376.898C298.782 391.767 314.607 396.813 325.267 397.724C329.348 398.111 333.464 397.828 337.453 396.884C349.556 394.037 360.708 386.609 369.864 375.325C397.765 360.466 430.769 335.225 435.627 297.64C436.957 287.537 435.303 276.358 401.408 206.322Z" fill="#333132"/>
<path d="M327.508 214.663C316.651 197.505 302.149 182.948 285.031 172.027C284.466 173.734 279.609 189.204 289.118 202.47C297.309 213.94 312.772 218.978 327.508 214.663Z" fill="#333132"/>
<path d="M83.464 121.458C71.1341 140.266 56.7229 167.973 51.068 202.21C48.7247 216.392 46.39 231.493 51.0554 249.801C54.7535 264.35 59.7245 268.633 64.6343 283.436C68.4045 294.828 71.871 311.808 69.3834 334.708C76.3681 320.155 84.2811 297.98 81.8753 271.832C80.078 252.345 73.5067 241.07 69.4099 228.78C62.2461 207.324 59.6042 173.486 83.464 121.458Z" fill="#333132"/>
</svg>
